<!DOCTYPE svg PUBLIC "-//W3C//DTD SVG 1.1//EN" "http://www.w3.org/Graphics/SVG/1.1/DTD/svg11.dtd">
<!-- Uploaded to: SVG Repo, www.svgrepo.com, Transformed by: SVG Repo Mixer Tools -->
<svg height="800px" width="800px" version="1.1" id="Layer_1" xmlns="http://www.w3.org/2000/svg" xmlns:xlink="http://www.w3.org/1999/xlink" viewBox="0 0 512 512" xml:space="preserve" fill="#e1dbdb" stroke="#e1dbdb">
<g id="SVGRepo_bgCarrier" stroke-width="0"/>
<g id="SVGRepo_tracerCarrier" stroke-linecap="round" stroke-linejoin="round"/>
<g id="SVGRepo_iconCarrier"> <path style="fill:#ffffff;" d="M170.325,512h-55.676c-8.256,0-14.949-6.694-14.949-14.949V389.389 c0-8.255,6.693-14.949,14.949-14.949s14.949,6.694,14.949,14.949v92.713h40.727c45.98,0,89.84-22.305,120.336-61.196 c47.379-60.422,77.805-121.895,87.988-177.774c2.491-13.699,3.752-27.031,3.752-39.613c0.001-95.734-67.633-173.621-150.764-173.621 c-18.093,0-35.783,3.659-52.581,10.877c-29.581,12.71-49.455,45.787-49.455,82.312v146.712c0,8.255-6.693,14.949-14.949,14.949 s-14.949-6.694-14.949-14.949V123.086c0-48.304,27.147-92.422,67.551-109.78C187.8,4.477,209.463,0,231.636,0 C331.254,0,412.3,91.299,412.3,203.52c0,14.37-1.425,29.499-4.235,44.966c-11.052,60.642-43.512,126.643-93.875,190.871 C277.987,485.522,225.552,512,170.325,512z"/> <path style="fill:#ebf0f4;" d="M231.635,74.745c-13.596,0-26.862,2.739-39.432,8.14c-14.517,6.237-24.27,22.392-24.27,40.202v67.18 c34.58,9.058,60.344,43.847,60.344,85.411s-25.766,76.353-60.344,85.411v76.168h2.393c35.294,0,68.864-16.994,92.097-46.626 c42.135-53.735,70.095-109.42,78.722-156.765c1.937-10.663,2.921-20.872,2.921-30.345 C344.067,132.513,293.631,74.745,231.635,74.745z"/> <g> <path style="fill:#ffffff;" d="M170.325,452.204h-2.393c-8.256,0-14.949-6.694-14.949-14.949v-76.168 c0-6.797,4.586-12.738,11.161-14.462c28.499-7.464,49.183-37.302,49.183-70.949s-20.685-63.485-49.183-70.949 c-6.575-1.722-11.161-7.664-11.161-14.462v-67.18c0-23.7,13.39-45.376,33.318-53.936c14.447-6.208,29.699-9.355,45.336-9.355 c70.237,0,127.38,64.475,127.38,143.725c0,10.367-1.063,21.476-3.162,33.018c-9.058,49.707-38.06,107.704-81.667,163.317 C248.101,433.122,210.244,452.204,170.325,452.204z M182.882,371.812v49.659c26.002-3.473,50.2-17.646,67.778-40.065 c40.666-51.862,67.58-105.212,75.781-150.222c1.776-9.775,2.679-19.085,2.679-27.664c0-62.763-43.73-113.827-97.482-113.827 c-11.554,0-22.836,2.331-33.532,6.926c-8.963,3.851-15.222,14.734-15.222,26.467v56.458c36.048,14.816,60.346,52.704,60.346,96.135 S218.93,356.996,182.882,371.812z"/> <path style="fill:#ffffff;" d="M167.933,380.918c-8.256,0-14.949-6.694-14.949-14.949v-66.273c0-8.255,6.693-14.949,14.949-14.949 s14.949,6.694,14.949,14.949v66.271C182.882,374.223,176.189,380.918,167.933,380.918z"/> </g> </g>
</svg>