<!DOCTYPE svg PUBLIC "-//W3C//DTD SVG 1.1//EN" "http://www.w3.org/Graphics/SVG/1.1/DTD/svg11.dtd">
<!-- Uploaded to: SVG Repo, www.svgrepo.com, Transformed by: SVG Repo Mixer Tools -->
<svg width="800px" height="800px" viewBox="0 0 24 24" fill="none" xmlns="http://www.w3.org/2000/svg" stroke="#ffffff">
<g id="SVGRepo_bgCarrier" stroke-width="0"/>
<g id="SVGRepo_tracerCarrier" stroke-linecap="round" stroke-linejoin="round"/>
<g id="SVGRepo_iconCarrier"> <path d="M13.9999 10.0001V7C13.9999 5.89543 13.1045 5 11.9999 5C10.8954 5 9.99994 5.89543 9.99994 7V12C9.99994 12.5523 10.2238 13.0523 10.5858 13.4142M13.9999 10.0001L19 5M13.9999 10.0001L10.5858 13.4142M8 10V12C8 13.1046 8.44771 14.1046 9.17157 14.8284M16 10V12C16 14.2091 14.2091 16 12 16M12 16V19M12 16C11.5021 16 11.0254 15.909 10.5858 15.7428M10.5858 13.4142L9.17157 14.8284M9.17157 14.8284L5 19M13.9999 12C13.9999 13.1046 13.1045 14 11.9999 14" stroke="#ffffff" stroke-linecap="round" stroke-linejoin="round"/> </g>
</svg>